<svg width="35" height="35" viewBox="0 0 35 35" fill="none" xmlns="http://www.w3.org/2000/svg">
<path d="M11.6665 14.5833L19.6873 6.5625V14.5833H30.6248L32.0832 18.2292L26.979 29.8958H11.6665V14.5833Z" fill="white"/>
<path d="M30.6252 13.1251H21.4231L22.8085 6.4605L22.8522 5.99383C22.8522 5.39591 22.6043 4.84175 22.2106 4.448L20.6647 2.91675L11.0689 12.5272C10.5293 13.0522 10.2085 13.7813 10.2085 14.5834V29.1667C10.2085 30.7709 11.521 32.0834 13.1252 32.0834H26.2502C27.4606 32.0834 28.496 31.3542 28.9335 30.3042L33.3377 20.023C33.4689 19.6876 33.5418 19.3376 33.5418 18.9584V16.0417C33.5418 14.4376 32.2293 13.1251 30.6252 13.1251ZM30.6252 18.9584L26.2502 29.1667H13.1252V14.5834L19.4543 8.25425L17.8356 16.0417H30.6252V18.9584ZM1.4585 14.5834H7.29183V32.0834H1.4585V14.5834Z" fill="white"/>
</svg>
