<?xml version="1.0" encoding="utf-8"?>
<!-- Generator: Adobe Illustrator 23.0.2, SVG Export Plug-In . SVG Version: 6.00 Build 0)  -->
<svg version="1.1" id="Layer_1" xmlns="http://www.w3.org/2000/svg" xmlns:xlink="http://www.w3.org/1999/xlink" x="0px" y="0px"
	 viewBox="0 0 640 512" style="enable-background:new 0 0 640 512;" xml:space="preserve">
<style type="text/css">
	.st0{fill:#666666;}
</style>
<path class="st0" d="M320,32c-80.8,0-145.5,36.8-192.6,80.6C80.6,156,49.3,208,34.5,243.7c-3.3,7.9-3.3,16.7,0,24.6
	C49.3,304,80.6,356,127.4,399.4C174.5,443.2,239.2,480,320,480s145.5-36.8,192.6-80.6c46.8-43.5,78.1-95.4,93-131.1
	c3.3-7.9,3.3-16.7,0-24.6c-14.9-35.7-46.2-87.7-93-131.1C465.5,68.8,400.8,32,320,32z M176,256c0-79.5,64.5-144,144-144
	s144,64.5,144,144s-64.5,144-144,144S176,335.5,176,256z M320,192c0,35.3-28.7,64-64,64c-7.1,0-13.9-1.2-20.3-3.3
	c-5.5-1.8-11.9,1.6-11.7,7.4c0.3,6.9,1.3,13.8,3.2,20.7c13.7,51.2,66.4,81.6,117.6,67.9s81.6-66.4,67.9-117.6
	c-11.1-41.5-47.8-69.4-88.6-71.1c-5.8-0.2-9.2,6.1-7.4,11.7C318.8,178.1,320,184.9,320,192L320,192z"/>
</svg>
