<svg width="290" height="278" viewBox="0 0 290 278" fill="none" xmlns="http://www.w3.org/2000/svg">
<path d="M145.698 277.994C225.394 277.994 290 244.36 290 202.871C290 161.382 225.394 127.749 145.698 127.749C66.0022 127.749 1.39603 161.382 1.39603 202.871C1.39603 244.36 66.0022 277.994 145.698 277.994Z" fill="#FCFCFC"/>
<path d="M238.151 212.691C259.408 212.691 276.64 202.744 276.64 190.474C276.64 178.203 259.408 168.256 238.151 168.256C216.895 168.256 199.663 178.203 199.663 190.474C199.663 202.744 216.895 212.691 238.151 212.691Z" fill="#CCD6DA"/>
<path d="M83.136 177.287C97.8605 185.787 98.4606 199.82 83.7361 208.321C69.0115 216.821 44.5337 216.569 29.8092 208.068C15.0846 199.568 15.0846 185.787 29.8092 177.287C44.5337 168.786 68.4114 168.786 83.136 177.287Z" fill="#CCD6DA"/>
<path d="M203.257 223.092L154.921 195.191C153.411 194.319 150.96 194.319 149.45 195.191L101.114 223.092C99.604 223.964 99.604 225.379 101.114 226.25L123.128 238.957L102.567 250.817C98.3912 253.23 91.5942 253.223 87.4188 250.817L55.0766 232.149C53.2889 231.119 52.3098 229.825 52.3098 228.505C52.3098 227.185 53.2952 225.89 55.0766 224.861L83.7361 208.314C84.3425 207.967 84.5446 207.19 84.1972 206.59C83.8498 205.984 83.0728 205.775 82.4727 206.129L53.8132 222.676C51.2107 224.179 49.7831 226.25 49.7831 228.505C49.7831 230.759 51.217 232.837 53.8132 234.334L86.1554 253.002C88.6316 254.436 91.8153 255.15 94.9927 255.15C98.1701 255.15 101.354 254.436 103.83 253.009L125.655 240.416L149.45 254.152C150.96 255.023 153.411 255.023 154.921 254.152L203.257 226.25C204.767 225.379 204.767 223.964 203.257 223.092Z" fill="#CCD6DA"/>
<path d="M258.492 180.035C258.492 180.035 260.248 154.027 259.73 144.441C259.319 136.843 258.289 133.711 258.075 131.993C258.075 131.993 256.211 114.278 256.06 99.2219C255.984 91.9781 255.314 86.8184 251.341 78.2041L225.802 84.3111C225.284 88.1383 223.528 113.59 223.111 136.218C222.751 156.029 223.313 173.372 223.313 173.372L223.338 174.414C223.338 175.569 223.086 176.378 222.34 178.241C221.589 180.123 220.211 182.813 218.386 184.784C217.862 185.352 214.217 188.535 213.737 189.217C212.17 191.042 215.411 192.072 217.817 191.75C220.357 191.409 224.305 190.449 225.423 188.901C226.168 187.872 226.73 184.26 227.495 183.217C230.078 179.693 231.14 178.184 231.159 177.054C231.19 175.02 230.495 174.218 230.243 173.069C230.451 170.669 235.631 150.933 235.719 143.942C235.764 140.613 235.536 136.028 235.536 136.028L239.554 112.964C241.108 118.724 243.836 133.029 244.752 138.517C245.877 145.224 248.802 162.433 250.526 172.709C251.196 176.668 251.505 178.67 251.808 180.508C251.808 180.514 251.884 181.285 251.884 181.298C251.941 182.289 252.661 192.969 253.059 195.204C253.88 199.871 258.03 199.284 258.694 195.507C259.262 192.293 258.548 182.346 258.536 181.127L258.485 180.047L258.492 180.035Z" fill="#FFA8A7"/>
<path d="M258.492 180.034C259.66 180.053 258.89 184.588 259.193 187.499C259.515 190.625 260.545 192.905 260.835 195.469C261.17 198.4 260.911 199.625 259.856 202.031C259.041 203.9 254.935 206.471 253.375 203.793C251.796 201.084 251.48 198.058 251.657 195.141C251.84 192.128 251.657 190.265 251.72 187.973C251.777 185.952 250.292 180.792 251.808 180.502L251.884 181.291C252.427 182.377 257.974 182.598 258.536 181.12L258.485 180.04L258.492 180.034Z" fill="#37474F"/>
<path d="M231.405 179.517C231.765 180.976 231.392 184.98 231.392 184.98C231.392 184.98 230.761 186.363 228.505 187.279L227.495 181.709L231.405 179.511V179.517Z" fill="#20495D"/>
<path d="M228.505 187.285L223.534 185.649L222.34 181.241L227.924 184.071L228.505 187.285Z" fill="#131313"/>
<path d="M223.338 174.42L223.313 173.378C222.637 173.707 221.153 179.138 219.144 182.87C217.312 186.274 213.674 188.169 212.499 189.653C210.919 191.636 213.989 194.188 218.91 193.133C221.355 192.609 225.057 191.049 226.061 189.4C227.065 187.752 227.406 184.721 228.221 183.508C229.042 182.296 230.988 180.9 231.405 179.517C231.632 178.759 231.816 177.079 231.392 175.709C231.007 174.452 230.672 172.936 230.243 173.069L230.211 174.022C229.883 174.692 228.695 175.475 226.206 175.614C225.025 175.677 223.875 175.494 223.338 174.42Z" fill="#37474F"/>
<path d="M225.309 84.0016C225.309 84.0016 223.623 102.74 223.079 119.33C222.536 135.927 223.022 157.33 223.022 157.33C223.022 157.33 224.734 158.556 228.505 158.726C232.277 158.897 233.584 157.64 233.584 157.64C233.584 157.64 235.89 150.118 236.25 144.826C236.61 139.533 236.25 136.218 236.25 136.218L239.617 114.076C239.617 114.076 243.887 135.877 244.373 138.51C244.86 141.144 248.953 164.435 248.953 164.435C248.953 164.435 250.558 165.919 254.676 165.837C258.315 165.768 259.376 164.461 259.376 164.461C259.376 164.461 260.254 150.175 260.052 144.074C259.875 138.693 258.649 134.412 258.403 130.925C258.157 127.439 258.011 107.565 257.771 99.9987C257.525 92.4328 256.843 85.8584 250.381 76.7578L225.322 84.0016H225.309Z" fill="#20495D"/>
<path d="M239.611 114.082L236.812 100.214C236.812 100.214 231.923 98.9379 229.649 95.957C229.649 95.957 230.281 99.2663 235.309 101.382L238.29 115.2L237.28 129.479L239.623 114.089L239.611 114.082Z" fill="#37474F"/>
<path d="M189.625 80.5346C192.203 81.0588 195.001 80.1368 195.001 80.1368C194.041 79.5936 193.295 79.1515 192.872 78.7284C192.038 77.8885 192.329 77.0106 192.62 76.6948C192.847 76.4485 193.428 77.0296 194.742 77.4022C196.422 77.8758 197.641 77.9769 199.259 78.9116C199.865 79.2589 200.579 79.3979 201.28 79.2652C205.222 78.52 214.413 74.2192 218.626 71.9646C219.491 68.4658 220.976 63.3061 222.82 56.8833C224.52 50.9594 227.248 48.3637 231.582 48.4647L230.982 61.323C230.982 61.323 228.91 70.2089 226.345 77.4653C225.897 78.741 224.096 80.2062 220.799 81.4251C216.529 83.0103 211.374 84.5007 205.076 86.2249C202.72 86.869 199.612 87.5448 197.256 87.7469C190.598 88.3153 188.046 86.4648 187.136 85.1765C184.597 81.5767 186.126 79.8273 189.619 80.5346H189.625Z" fill="#FFA8A7"/>
<path d="M242.788 48.3569L248.865 48.8306C247.21 57.6911 253.438 62.4277 253.438 62.4277L250.728 73.3472C250.817 74.6924 253.059 79.2395 255.226 84.134C251.151 89.5905 231.165 91.4536 224.646 86.6665C225.65 81.5257 226.402 77.6164 226.604 75.6712L226.276 68.6169C218.108 61.9162 227.969 51.7041 231.594 48.458L236.155 48.2559L242.794 48.3632L242.788 48.3569Z" fill="#1CE4BF"/>
<path d="M268.377 102.727C267.487 102.108 266.975 100.819 267.076 99.8025C267.184 98.7857 267.417 97.5037 267.834 97.0111C268.251 96.5185 270.91 92.9123 272.085 95.0091C273.368 97.2953 273.09 98.2173 273.09 98.2173L268.371 102.72L268.377 102.727Z" fill="#F28F8F"/>
<path d="M260.191 150.926C257.689 150.926 254.948 150.105 252.137 148.482L220.597 130.275C215.727 127.464 211.76 120.6 211.76 114.973V88.5171C211.76 86.6982 210.818 85.0688 209.239 84.1594C207.66 83.25 205.777 83.25 204.205 84.1594L193.125 90.5507C192.518 90.898 191.748 90.6896 191.4 90.0896C191.053 89.4833 191.261 88.7129 191.862 88.3655L202.941 81.9743C205.31 80.6101 208.14 80.6101 210.502 81.9743C212.871 83.3384 214.286 85.7888 214.286 88.5234V114.979C214.286 119.715 217.754 125.728 221.86 128.096L253.4 146.303C257.437 148.634 261.176 149.038 263.937 147.447C266.697 145.855 268.213 142.413 268.213 137.752V103.977C268.213 98.2555 271.871 91.6622 276.545 88.9655L284.245 84.5194C284.852 84.1721 285.622 84.3805 285.97 84.9804C286.317 85.5867 286.109 86.3572 285.509 86.7045L277.808 91.1506C273.98 93.361 270.74 99.2344 270.74 103.971V137.746C270.74 143.348 268.775 147.567 265.2 149.625C263.697 150.491 262.01 150.92 260.197 150.92L260.191 150.926Z" fill="#37474F"/>
<path d="M205.676 92.3758V94.4409C205.676 97.7439 203.358 101.767 200.49 103.415L181.357 114.461L161.907 103.232V86.3951L180.788 77.6734C183.789 76.2903 188.545 76.505 191.407 78.1534L200.49 83.3952C203.352 85.0499 205.676 89.0665 205.676 92.3695V92.3758Z" fill="#37474F"/>
<path d="M180.788 77.6734C183.789 76.2903 188.545 76.505 191.407 78.1534L200.49 83.3952C203.352 85.0499 203.238 87.5129 200.238 88.896L181.357 97.6113L161.901 86.3887L180.782 77.6671L180.788 77.6734Z" fill="#20495D"/>
<path opacity="0.15" d="M183.195 93.5695C184.629 94.3969 185.785 96.4052 185.785 98.0598V111.91L181.357 114.467L161.907 103.238V86.4015L166.828 84.1279L183.195 93.5758V93.5695Z" fill="#131313"/>
<path d="M160.252 83.4965C160.719 83.225 161.357 83.2692 162.071 83.6797L181.199 94.7191C182.633 95.5464 183.789 97.5547 183.789 99.2094V115.68C183.789 116.507 183.498 117.082 183.024 117.354C182.588 117.6 181.022 118.503 180.592 118.756C180.125 119.034 179.48 118.996 178.76 118.579L159.633 107.539C158.199 106.712 157.043 104.704 157.043 103.049V86.5785C157.043 85.7575 157.327 85.1701 157.795 84.9049C158.231 84.6523 159.81 83.7492 160.246 83.4965H160.252Z" fill="#37474F"/>
<path d="M178.767 96.1274L159.639 85.088C158.205 84.2607 157.049 84.9301 157.049 86.5848V103.055C157.049 104.71 158.212 106.718 159.639 107.546L178.767 118.585C180.201 119.413 181.357 118.743 181.357 117.088V100.618C181.357 98.9631 180.194 96.9548 178.767 96.1274Z" fill="#20495D"/>
<path d="M156.114 115.295V118.143C156.114 119.299 156.512 120.101 157.169 120.48C157.46 120.644 158.597 121.307 158.894 121.478C159.551 121.863 160.467 121.812 161.465 121.231L177.289 112.099V100.87L175.564 99.8789L159.74 109.011C157.738 110.167 156.114 112.983 156.114 115.295ZM163.271 111.752C163.322 111.954 163.36 112.181 163.36 112.428C163.36 113.975 162.273 115.863 160.928 116.64C160.713 116.766 160.505 116.842 160.309 116.893C160.258 116.691 160.22 116.476 160.22 116.23C160.22 114.682 161.307 112.794 162.652 112.017C162.867 111.891 163.076 111.802 163.278 111.752H163.271Z" fill="#1CE4BF"/>
<path opacity="0.2" d="M158.793 121.414C158.831 121.44 158.862 121.465 158.907 121.49C158.9 121.49 158.9 121.49 158.894 121.49C158.875 121.478 158.85 121.465 158.831 121.452C158.452 121.231 157.435 120.644 157.169 120.486C156.506 120.12 156.114 119.318 156.114 118.156V115.307C156.114 114.145 156.519 112.863 157.182 111.727L158.9 112.718C158.243 113.867 157.839 115.137 157.839 116.299V119.147C157.839 120.05 158.085 120.739 158.502 121.181C158.584 121.276 158.692 121.351 158.793 121.421V121.414Z" fill="#131313"/>
<path opacity="0.5" d="M177.276 100.87L161.465 110.003C160.46 110.584 159.557 111.569 158.9 112.706L157.182 111.714C157.839 110.577 158.742 109.592 159.74 109.011L175.564 99.8789L177.276 100.87Z" fill="#FCFCFC"/>
<path opacity="0.5" d="M158.976 121.528C158.976 121.528 158.945 121.509 158.932 121.503C158.938 121.503 158.951 121.509 158.964 121.516C158.97 121.522 158.97 121.528 158.976 121.528Z" fill="#FCFCFC"/>
<path opacity="0.2" d="M158.964 121.516C158.964 121.516 158.938 121.503 158.932 121.503C158.919 121.503 158.913 121.491 158.907 121.484C158.926 121.497 158.945 121.503 158.964 121.516Z" fill="#131313"/>
<path opacity="0.2" d="M163.354 112.421C163.354 112.168 163.316 111.941 163.271 111.752C164.307 111.461 165.078 112.118 165.078 113.419C165.078 114.972 163.992 116.854 162.646 117.631C161.522 118.288 160.562 117.941 160.303 116.892C160.505 116.842 160.707 116.772 160.928 116.64C162.267 115.863 163.36 113.981 163.36 112.427L163.354 112.421Z" fill="#131313"/>
<path d="M141.523 106.877V109.725C141.523 110.881 141.921 111.683 142.577 112.062C142.868 112.226 144.005 112.889 144.302 113.06C144.959 113.445 145.875 113.395 146.873 112.813L162.697 103.681V92.4525L160.972 91.4609L145.148 100.593C143.146 101.749 141.523 104.565 141.523 106.877ZM148.68 103.334C148.73 103.536 148.768 103.763 148.768 104.01C148.768 105.557 147.681 107.445 146.336 108.222C146.121 108.348 145.913 108.424 145.717 108.475C145.666 108.273 145.629 108.058 145.629 107.812C145.629 106.264 146.715 104.376 148.06 103.599C148.275 103.473 148.484 103.385 148.686 103.334H148.68Z" fill="#1CE4BF"/>
<path opacity="0.2" d="M144.378 113.097C144.378 113.097 144.359 113.085 144.346 113.085C144.334 113.072 144.315 113.066 144.302 113.06C144.005 112.883 142.868 112.22 142.584 112.055C141.921 111.683 141.529 110.881 141.529 109.719V106.87C141.529 106.289 141.63 105.683 141.813 105.077C141.996 104.471 142.262 103.864 142.59 103.296L144.308 104.287C144.308 104.287 144.308 104.287 144.302 104.287C144.138 104.572 143.992 104.862 143.866 105.159C143.474 106.056 143.247 106.99 143.247 107.862V110.71C143.247 111.607 143.493 112.302 143.91 112.744C144.043 112.883 144.201 113.003 144.371 113.091L144.378 113.097Z" fill="#131313"/>
<path opacity="0.5" d="M162.69 92.4519L146.879 101.584C145.869 102.165 144.972 103.15 144.315 104.287L142.596 103.302C143.253 102.159 144.157 101.167 145.155 100.586L160.978 91.4541L162.69 92.4519Z" fill="#FCFCFC"/>
<path opacity="0.5" d="M144.391 113.11C144.391 113.11 144.365 113.098 144.346 113.085C144.359 113.085 144.365 113.085 144.378 113.098C144.378 113.104 144.378 113.11 144.391 113.11Z" fill="#FCFCFC"/>
<path opacity="0.2" d="M148.768 104.003C148.768 103.75 148.73 103.523 148.686 103.334C149.722 103.043 150.492 103.7 150.492 105.001C150.492 106.554 149.4 108.436 148.061 109.213C146.936 109.87 145.976 109.523 145.717 108.474C145.919 108.424 146.121 108.354 146.342 108.222C147.681 107.445 148.774 105.563 148.774 104.009L148.768 104.003Z" fill="#131313"/>
<path d="M146.311 95.3821L143.765 85.4795" stroke="#FCFCFC" stroke-width="3" stroke-linecap="round" stroke-linejoin="round"/>
<path d="M139.204 99.5192L129.792 92.0859" stroke="#FCFCFC" stroke-width="3" stroke-linecap="round" stroke-linejoin="round"/>
<path d="M137.24 107.735L126.242 108.588" stroke="#FCFCFC" stroke-width="3" stroke-linecap="round" stroke-linejoin="round"/>
<path d="M276.975 92.4198C276.728 90.5188 276.52 87.8285 275.939 85.4728C274.467 79.5236 271.271 71.8188 270.216 69.7978C269.161 67.7832 266.779 64.8465 265.093 62.3646C262.705 58.8595 261.031 56.8891 259.212 54.5144C255.219 49.2916 253.52 48.9947 248.865 48.8242C248.233 50.4852 246.793 57.2932 251.461 62.794L261.473 73.3408C262.042 74.2566 268.156 84.7023 269.173 88.5674C269.357 89.2494 269.255 89.9757 268.933 90.6073C268.074 92.2998 267.563 94.4218 267.184 96.1333C266.887 97.4722 266.091 98.5332 266.362 98.7416C266.71 99.0068 267.569 99.3352 268.58 98.5647C269.066 98.1921 269.811 96.9669 270.304 95.9691C271.144 95.9691 271.687 96.4617 271.751 97.3459C271.807 98.1227 271.454 99.2089 271.188 100.554C271.138 100.813 271.075 101.116 270.948 101.849C270.866 102.247 270.784 102.777 270.778 103.352C272.054 103.586 273.355 102.815 275.478 100.8C277.398 98.9816 277.524 96.5375 276.981 92.4135L276.975 92.4198Z" fill="#FFA8A7"/>
<path d="M243.874 45.2939C243.906 44.0497 248.018 41.0752 250.096 37.9301C252.023 35.0186 254.714 26.9917 248.334 24.4276C248.334 24.4276 249.705 20.5752 247.21 18.3143C244.715 16.047 241.341 17.4491 240.811 18.3964C240.811 18.3964 239.882 14.4113 235.467 14.1966C231.058 13.9819 230.236 18.0995 230.236 18.0995C230.236 18.0995 226.749 16.5017 224.412 19.7289C222.075 22.9561 225.177 25.9118 225.177 25.9118C225.177 25.9118 223.774 26.7959 223.989 28.3748C224.172 29.7389 225.48 30.08 225.638 30.7557C225.789 31.4315 224.93 31.8357 224.488 31.3494C224.488 31.3494 224.633 32.5177 226.105 32.4419C227.577 32.3662 228.891 30.3642 228.891 30.3642L243.874 45.2939Z" fill="#20495D"/>
<path d="M230.476 24.0234C228.588 24.8444 226.794 27.7243 226.825 35.8018C226.851 42.6414 228.948 44.3718 230.009 44.8834C231.07 45.3886 233.136 45.136 235.151 44.8265V48.7611C235.151 48.7611 231.506 53.2766 234.766 55.5249C243.18 54.0534 243.824 48.5337 243.824 48.5337L243.975 39.9573C243.975 39.9573 245.131 41.1762 247.165 39.3889C248.846 37.9174 249.452 35.3913 248.189 34.0082C246.925 32.6251 245.308 32.5114 243.843 34.0587C243.843 34.0587 241.158 34.2292 237.122 31.6967C232.99 29.1011 231.582 26.6001 230.476 24.0234Z" fill="#FFA8A7"/>
<path d="M235.328 40.084C235.347 40.6461 234.93 41.1134 234.393 41.126C233.856 41.145 233.401 40.7029 233.382 40.1471C233.363 39.5851 233.78 39.1177 234.317 39.1051C234.854 39.0861 235.309 39.5282 235.328 40.084Z" fill="#B16668"/>
<path d="M230.123 33.4711C230.142 33.9889 229.75 34.4247 229.251 34.4436C228.752 34.4626 228.329 34.0521 228.31 33.5279C228.291 33.01 228.682 32.5743 229.181 32.5553C229.68 32.5364 230.104 32.9469 230.123 33.4711Z" fill="#20495D"/>
<path d="M237.122 33.876C237.141 34.438 236.724 34.9054 236.187 34.918C235.65 34.9306 235.195 34.4949 235.176 33.9391C235.157 33.377 235.574 32.9097 236.111 32.8971C236.648 32.8781 237.103 33.3202 237.122 33.876Z" fill="#20495D"/>
<path d="M229.491 29.8462L227.564 30.9703C227.842 31.5387 228.55 31.6903 229.08 31.3808C229.611 31.0714 229.769 30.4082 229.491 29.8398V29.8462Z" fill="#20495D"/>
<path d="M243.83 32.9404L243.805 36.7423C242.788 36.7739 241.967 35.9529 241.973 34.9045C241.979 33.8562 242.807 32.9783 243.824 32.9404H243.83Z" fill="#20495D"/>
<path d="M232.618 32.5615L232.226 38.0118L229.352 37.3423L232.618 32.5615Z" fill="#F28F8F"/>
<path d="M235.145 44.8199C237.261 44.5736 241.632 43.3547 242.346 41.5801C242.346 41.5801 242.099 42.6979 240.779 43.8347C239.459 44.9652 235.145 46.1462 235.145 46.1462V44.8199Z" fill="#F28F8F"/>
<path d="M260.589 2.62712C261.397 2.93026 262.149 3.34076 262.831 3.85863C263.513 4.37018 264.069 4.96384 264.499 5.62696C264.928 6.29008 265.2 7.01636 265.32 7.79947C265.44 8.58259 265.339 9.39728 265.023 10.2436C264.764 10.9319 264.429 11.494 264.025 11.9235C263.615 12.3529 263.166 12.7066 262.68 12.9845C262.193 13.2623 261.682 13.496 261.157 13.6855C260.633 13.8749 260.134 14.0518 259.673 14.216C259.205 14.3865 258.776 14.5823 258.384 14.8096C257.993 15.037 257.702 15.3338 257.506 15.6938C257.399 15.8706 257.26 16.0033 257.089 16.098C256.919 16.1927 256.736 16.199 256.546 16.1296L254.575 15.3907C254.386 15.3212 254.24 15.1886 254.146 14.9928C254.051 14.797 254.051 14.6139 254.139 14.4307C254.43 13.7676 254.79 13.2308 255.232 12.8203C255.674 12.4034 256.148 12.0624 256.653 11.7908C257.159 11.5193 257.677 11.2982 258.207 11.1214C258.738 10.9446 259.231 10.7741 259.692 10.5972C260.153 10.4267 260.551 10.2309 260.886 10.0099C261.227 9.79516 261.461 9.50465 261.599 9.13835C261.846 8.48154 261.776 7.83737 261.378 7.20582C260.987 6.57428 260.33 6.08799 259.414 5.74064C257.948 5.19119 256.59 5.51328 255.352 6.72585C255.194 6.88373 255.049 6.9911 254.923 7.04794C254.79 7.10477 254.613 7.09214 254.392 7.01004L252.295 6.22061C252.137 6.16377 252.023 6.06272 251.954 5.91115C251.878 5.7659 251.878 5.60801 251.941 5.43118C252.187 4.83121 252.604 4.28808 253.192 3.78916C253.779 3.29024 254.474 2.905 255.257 2.61449C256.047 2.33029 256.9 2.1724 257.828 2.14714C258.757 2.12188 259.673 2.27977 260.589 2.62712ZM256.085 17.7211C256.274 17.7905 256.413 17.9231 256.495 18.1126C256.584 18.3021 256.59 18.4915 256.514 18.681L255.655 20.9609C255.586 21.1503 255.453 21.2893 255.264 21.3777C255.074 21.4661 254.885 21.4724 254.695 21.403L252.472 20.563C252.282 20.4935 252.143 20.3609 252.055 20.1715C251.966 19.982 251.96 19.7925 252.036 19.6031L252.895 17.3232C252.964 17.1337 253.097 16.9948 253.287 16.9064C253.476 16.8179 253.666 16.8116 253.855 16.8874L256.085 17.7274V17.7211Z" fill="#1CE4BF"/>
<path d="M261.682 29.847C261.821 29.9797 261.89 30.1439 261.896 30.3397C261.896 30.5354 261.84 30.7059 261.707 30.8449L260.128 32.5059C259.995 32.6448 259.831 32.7143 259.635 32.7206C259.439 32.7206 259.269 32.6637 259.13 32.5311L257.506 30.9838C257.367 30.8512 257.298 30.687 257.291 30.4912C257.291 30.2954 257.348 30.1249 257.481 29.986L259.06 28.325C259.193 28.1861 259.357 28.1166 259.553 28.1103C259.749 28.1103 259.919 28.1671 260.058 28.2998L261.682 29.847ZM271.132 18.3971C271.725 18.9592 272.224 19.5907 272.629 20.2854C273.033 20.9801 273.298 21.7001 273.431 22.4327C273.557 23.1653 273.532 23.8979 273.349 24.6178C273.166 25.3441 272.78 26.0136 272.193 26.6325C271.713 27.1377 271.22 27.4977 270.708 27.7187C270.197 27.9398 269.679 28.085 269.154 28.1482C268.624 28.2113 268.1 28.224 267.582 28.1987C267.057 28.1671 266.565 28.1419 266.097 28.1166C265.63 28.0913 265.181 28.104 264.764 28.1608C264.341 28.2113 263.981 28.3629 263.678 28.6029C263.52 28.7166 263.349 28.7797 263.166 28.7987C262.983 28.8176 262.819 28.7608 262.68 28.6282L261.246 27.264C261.107 27.1314 261.031 26.9672 261.018 26.7651C261.006 26.563 261.075 26.3988 261.22 26.2725C261.713 25.8052 262.225 25.4704 262.762 25.2747C263.299 25.0789 263.836 24.9526 264.373 24.902C264.909 24.8515 265.446 24.8452 265.971 24.8894C266.495 24.9336 266.988 24.9589 267.449 24.9778C267.91 24.9968 268.327 24.9778 268.7 24.9084C269.072 24.8452 269.388 24.681 269.635 24.4158C270.089 23.9358 270.26 23.3548 270.152 22.6601C270.045 21.9654 269.653 21.3022 268.99 20.6707C267.916 19.6539 266.621 19.4392 265.099 20.0328C264.903 20.1086 264.739 20.1528 264.606 20.1591C264.467 20.1591 264.322 20.0834 264.158 19.9318L262.629 18.4792C262.515 18.3719 262.452 18.2392 262.446 18.0877C262.433 17.9361 262.49 17.7972 262.61 17.6708C263.04 17.2414 263.608 16.9193 264.303 16.7046C264.998 16.4899 265.737 16.4014 266.527 16.4457C267.316 16.4899 268.112 16.6667 268.927 16.9825C269.742 17.2982 270.481 17.7782 271.151 18.4098L271.132 18.3971Z" fill="#1CE4BF"/>
<g opacity="0.6">
<path d="M261.682 29.847C261.821 29.9797 261.89 30.1439 261.896 30.3397C261.896 30.5354 261.84 30.7059 261.707 30.8449L260.128 32.5059C259.995 32.6448 259.831 32.7143 259.635 32.7206C259.439 32.7206 259.269 32.6637 259.13 32.5311L257.506 30.9838C257.367 30.8512 257.298 30.687 257.291 30.4912C257.291 30.2954 257.348 30.1249 257.481 29.986L259.06 28.325C259.193 28.1861 259.357 28.1166 259.553 28.1103C259.749 28.1103 259.919 28.1671 260.058 28.2998L261.682 29.847ZM271.132 18.3971C271.725 18.9592 272.224 19.5907 272.629 20.2854C273.033 20.9801 273.298 21.7001 273.431 22.4327C273.557 23.1653 273.532 23.8979 273.349 24.6178C273.166 25.3441 272.78 26.0136 272.193 26.6325C271.713 27.1377 271.22 27.4977 270.708 27.7187C270.197 27.9398 269.679 28.085 269.154 28.1482C268.624 28.2113 268.1 28.224 267.582 28.1987C267.057 28.1671 266.565 28.1419 266.097 28.1166C265.63 28.0913 265.181 28.104 264.764 28.1608C264.341 28.2113 263.981 28.3629 263.678 28.6029C263.52 28.7166 263.349 28.7797 263.166 28.7987C262.983 28.8176 262.819 28.7608 262.68 28.6282L261.246 27.264C261.107 27.1314 261.031 26.9672 261.018 26.7651C261.006 26.563 261.075 26.3988 261.22 26.2725C261.713 25.8052 262.225 25.4704 262.762 25.2747C263.299 25.0789 263.836 24.9526 264.373 24.902C264.909 24.8515 265.446 24.8452 265.971 24.8894C266.495 24.9336 266.988 24.9589 267.449 24.9778C267.91 24.9968 268.327 24.9778 268.7 24.9084C269.072 24.8452 269.388 24.681 269.635 24.4158C270.089 23.9358 270.26 23.3548 270.152 22.6601C270.045 21.9654 269.653 21.3022 268.99 20.6707C267.916 19.6539 266.621 19.4392 265.099 20.0328C264.903 20.1086 264.739 20.1528 264.606 20.1591C264.467 20.1591 264.322 20.0834 264.158 19.9318L262.629 18.4792C262.515 18.3719 262.452 18.2392 262.446 18.0877C262.433 17.9361 262.49 17.7972 262.61 17.6708C263.04 17.2414 263.608 16.9193 264.303 16.7046C264.998 16.4899 265.737 16.4014 266.527 16.4457C267.316 16.4899 268.112 16.6667 268.927 16.9825C269.742 17.2982 270.481 17.7782 271.151 18.4098L271.132 18.3971Z" fill="#FCFCFC"/>
</g>
<path d="M36.9156 188.636C38.9181 189.855 41.5775 189.906 44.0853 189.021L46.0119 175.778L37.1367 173.511L36.9156 188.63V188.636Z" fill="#FFA8A7"/>
<path d="M51.1854 201.337C51.4002 201.564 51.2675 203.219 50.9959 203.604C50.7053 204.008 49.2019 205.24 46.4035 205.291C43.7315 205.341 41.369 204.848 39.8593 203.775C38.3496 202.695 37.6484 201.564 37.5852 200.036C37.5221 198.514 37.7684 197.055 37.1051 195.849C36.4924 194.737 35.6586 193.639 35.4564 193.039C35.0206 191.738 35.4438 189.773 35.4438 189.773L51.1854 201.337Z" fill="#20495D"/>
<path d="M44.6981 188.466C44.7108 189.034 44.7802 189.596 44.9318 190.171C45.254 191.371 45.7846 192.508 46.3847 193.594C46.6942 194.156 47.0227 194.705 47.4144 195.223C48.1661 196.228 49.1262 197.067 49.9285 198.034C50.7307 199 51.394 200.156 51.4003 201.394C51.4003 203.49 49.0946 204.078 47.3322 204.292C45.4498 204.526 43.4663 204.318 41.6724 203.705C39.6762 203.023 38.2992 201.375 38.0718 199.335C38.0086 198.747 38.0718 198.16 38.0339 197.573C37.9517 196.234 37.3264 194.977 36.6062 193.828C36.1893 193.158 35.7282 192.508 35.4692 191.769C34.9955 190.449 35.5071 189.015 35.924 187.746C36.2841 186.647 36.5747 185.327 36.96 185.453C36.9474 185.681 36.9474 186.167 36.9474 186.167C37.0611 186.413 37.339 186.596 37.4085 186.881C37.478 187.177 37.5601 187.474 37.6801 187.758C37.8633 188.188 38.1539 188.592 38.5518 188.832C38.6213 188.043 38.6908 187.26 38.7603 186.47C38.7792 186.224 38.8108 185.965 38.9814 185.788C39.1519 185.605 39.4172 185.567 39.6636 185.535C41.1544 185.34 42.6704 185.144 44.1549 185.409C44.376 185.447 44.6223 185.51 44.7423 185.706C44.8434 185.864 44.8308 186.06 44.8118 186.243C44.7487 187.001 44.6792 187.74 44.6981 188.472V188.466Z" fill="#1CE4BF"/>
<path opacity="0.2" d="M44.6981 188.466C44.7108 189.034 44.7802 189.596 44.9318 190.171C45.254 191.371 45.7846 192.508 46.3847 193.594C46.6942 194.156 47.0227 194.705 47.4144 195.223C48.1661 196.228 49.1262 197.067 49.9285 198.034C50.7307 199 51.394 200.156 51.4003 201.394C51.4003 203.49 49.0946 204.078 47.3322 204.292C45.4498 204.526 43.4663 204.318 41.6724 203.705C39.6762 203.023 38.2992 201.375 38.0718 199.335C38.0086 198.747 38.0718 198.16 38.0339 197.573C37.9517 196.234 37.3264 194.977 36.6062 193.828C36.1893 193.158 35.7282 192.508 35.4692 191.769C34.9955 190.449 35.5071 189.015 35.924 187.746C36.2841 186.647 36.5747 185.327 36.96 185.453C36.9474 185.681 36.9474 186.167 36.9474 186.167C37.0611 186.413 37.339 186.596 37.4085 186.881C37.478 187.177 37.5601 187.474 37.6801 187.758C37.8633 188.188 38.1539 188.592 38.5518 188.832C38.6213 188.043 38.6908 187.26 38.7603 186.47C38.7792 186.224 38.8108 185.965 38.9814 185.788C39.1519 185.605 39.4172 185.567 39.6636 185.535C41.1544 185.34 42.6704 185.144 44.1549 185.409C44.376 185.447 44.6223 185.51 44.7423 185.706C44.8434 185.864 44.8308 186.06 44.8118 186.243C44.7487 187.001 44.6792 187.74 44.6981 188.472V188.466Z" fill="#131313"/>
<path d="M46.6436 194.049C45.8982 193.423 44.1547 193.322 43.1946 193.373C41.9944 193.436 41.0026 193.802 40.4341 194.175C40.1814 194.339 39.8403 194.295 39.6382 194.068C39.3918 193.802 39.4424 193.386 39.7456 193.183C40.352 192.786 41.4385 192.242 42.8535 192.217C45.2097 192.179 45.8729 192.615 45.8729 192.615C45.8729 192.615 46.9089 193.36 46.6373 194.042L46.6436 194.049Z" fill="#20495D"/>
<path d="M48.3175 196.284C47.37 195.653 45.4497 195.634 44.4895 195.684C43.2893 195.748 42.3734 196.171 41.7986 196.543C41.5459 196.708 41.2048 196.657 41.0026 196.436C40.7563 196.171 40.8068 195.754 41.11 195.552C41.7164 195.154 42.8724 194.522 44.2937 194.497C46.6499 194.459 47.231 194.971 47.231 194.971C47.231 194.971 48.1975 195.407 48.3175 196.278V196.284Z" fill="#20495D"/>
<path d="M42.0449 189.925C43.6747 189.843 44.3506 190.064 44.9822 190.329C45.3802 190.581 45.6202 191.251 45.3423 191.402C44.837 191.087 43.9021 190.916 42.7461 190.903C41.9691 190.897 40.9837 191.156 40.1688 191.466C39.9604 191.541 39.7203 191.655 39.5055 191.762C39.215 191.901 38.8675 191.775 38.7475 191.478C38.6465 191.232 38.7475 190.948 38.9876 190.821C39.575 190.512 40.7247 189.994 42.0386 189.931L42.0449 189.925Z" fill="#20495D"/>
<path d="M61.8419 183.66C63.3832 187.519 65.7963 186.332 69.4727 184.109L70.0285 170.935L60.6733 170.069L61.8419 183.66Z" fill="#FFA8A7"/>
<path d="M83.5845 192.944C83.7803 193.411 83.6666 194.27 83.3823 194.801C83.0918 195.331 80.1671 196.777 76.3454 196.316C72.5237 195.849 69.978 194.163 68.563 193.121C67.1481 192.079 65.6383 191.813 63.7496 191.599C61.8545 191.39 60.4332 190.727 60.0606 189.818C59.6942 188.908 60.2564 187.405 60.2564 187.405L83.5845 192.944Z" fill="#20495D"/>
<path d="M68.702 180.8C69.0557 180.736 69.3463 180.629 69.719 180.515C69.9022 180.459 70.1107 180.402 70.2875 180.477C70.5276 180.585 70.6097 180.875 70.6602 181.134C70.7676 181.658 70.7866 182.334 70.9887 182.821C71.1719 183.263 71.6646 183.686 72.0057 184.008C72.8964 184.841 73.926 185.517 74.9683 186.149C76.1875 186.888 77.3813 187.475 78.6447 188.125C79.9333 188.789 81.6642 189.243 82.6559 189.995C84.1088 191.087 84.1656 193.645 82.3969 194.561C80.8746 195.35 76.9328 196.083 72.909 194.706C70.7171 193.955 68.3798 191.447 65.4741 191.062C63.6233 190.816 61.1597 190.525 60.0416 189.054C59.631 188.403 59.9911 186.597 60.3195 184.45C60.6164 182.53 60.8881 179.53 61.4945 179.726L61.545 180.307C61.545 180.307 62.1009 180.976 62.2841 181.197C62.442 181.393 62.6252 181.513 62.8021 181.69C63.0295 181.911 63.2063 182.164 63.459 182.366C63.7622 182.612 64.1349 182.795 64.5266 182.814C64.7098 182.821 64.9056 182.789 65.0635 182.701C65.3793 182.517 65.4172 182.107 65.6762 181.848C65.9668 181.557 66.3269 181.33 66.7059 181.178C67.2428 180.964 67.8113 180.882 68.3798 180.837C68.4935 180.831 68.5946 180.812 68.6957 180.8H68.702Z" fill="#1CE4BF"/>
<path opacity="0.2" d="M68.702 180.8C69.0557 180.736 69.3463 180.629 69.719 180.515C69.9022 180.459 70.1107 180.402 70.2875 180.477C70.5276 180.585 70.6097 180.875 70.6602 181.134C70.7676 181.658 70.7866 182.334 70.9887 182.821C71.1719 183.263 71.6646 183.686 72.0057 184.008C72.8964 184.841 73.926 185.517 74.9683 186.149C76.1875 186.888 77.3813 187.475 78.6447 188.125C79.9333 188.789 81.6642 189.243 82.6559 189.995C84.1088 191.087 84.1656 193.645 82.3969 194.561C80.8746 195.35 76.9328 196.083 72.909 194.706C70.7171 193.955 68.3798 191.447 65.4741 191.062C63.6233 190.816 61.1597 190.525 60.0416 189.054C59.631 188.403 59.9911 186.597 60.3195 184.45C60.6164 182.53 60.8881 179.53 61.4945 179.726L61.545 180.307C61.545 180.307 62.1009 180.976 62.2841 181.197C62.442 181.393 62.6252 181.513 62.8021 181.69C63.0295 181.911 63.2063 182.164 63.459 182.366C63.7622 182.612 64.1349 182.795 64.5266 182.814C64.7098 182.821 64.9056 182.789 65.0635 182.701C65.3793 182.517 65.4172 182.107 65.6762 181.848C65.9668 181.557 66.3269 181.33 66.7059 181.178C67.2428 180.964 67.8113 180.882 68.3798 180.837C68.4935 180.831 68.5946 180.812 68.6957 180.8H68.702Z" fill="#131313"/>
<path d="M73.288 185.05C73.288 185.05 73.0606 184.324 71.9678 184.058C71.134 183.856 69.6053 184.399 68.6388 185.113C68.2409 185.403 68.2598 186.003 68.6767 186.262C68.9231 186.42 69.2389 186.395 69.4727 186.218C70.1107 185.719 71.5256 184.835 73.288 185.05Z" fill="#20495D"/>
<path d="M75.8274 186.661C75.8274 186.661 75.3284 185.777 74.2482 185.739C74.2482 185.739 72.0373 185.682 70.6097 186.882C70.2433 187.185 70.237 187.741 70.6413 187.993C70.8813 188.145 71.1845 188.126 71.4056 187.949C72.0499 187.431 73.3449 186.345 75.8274 186.667V186.661Z" fill="#20495D"/>
<path d="M78.6447 188.132C78.6447 188.132 78.0762 187.329 76.996 187.285C76.996 187.285 74.9367 187.254 73.5028 188.447C73.1364 188.75 73.1301 189.306 73.5344 189.559C73.7744 189.71 74.0776 189.691 74.2987 189.515C74.943 188.997 76.1559 187.816 78.6384 188.132H78.6447Z" fill="#20495D"/>
<path d="M36.663 153.08C36.9472 146.721 38.299 143.411 38.4948 141.649C38.4948 141.649 39.0128 106.668 39.8656 96.0455L71.1971 94.7129C71.6583 106.055 72.0752 136.622 71.8351 140.664C71.6014 144.536 70.0285 178.115 70.0285 178.115C65.6004 179.492 60.8881 177.502 60.8881 177.502C60.8881 177.502 58.2603 158.404 57.8307 154.192C57.2748 148.742 58.1276 142.818 58.1276 142.818L56.1252 115.617C56.1252 115.617 53.7058 136.704 52.5056 144.649C51.1349 153.75 45.2665 181.961 45.2665 181.961C41.0405 183.016 36.922 181.19 36.922 181.19C36.922 181.19 36.2587 162.295 36.6693 153.08H36.663Z" fill="#20495D"/>
<path d="M56.1188 115.624L56.7126 111.879C58.5382 111.607 63.1621 108.721 65.8973 106.201C65.8973 106.201 63.4211 110.395 58.216 113.281L58.1213 142.831L56.1188 115.63V115.624Z" fill="#37474F"/>
<path d="M68.9673 76.2842C66.8385 71.4276 63.1748 63.2491 63.1748 63.2491L62.2462 49.9551C62.2462 49.9551 64.3244 50.0056 66.2953 50.3151C68.2661 50.6245 71.393 52.5065 72.8269 56.0558C73.8881 58.6894 79.4406 74.7559 79.4406 74.7559L89.1054 69.6593C91.5816 68.0868 92.4533 65.4785 94.0389 64.0006C95.6181 62.5228 97.2162 62.2702 98.947 61.064C100.678 59.8577 101.392 58.8914 101.828 60.0977C102.27 61.304 100.311 63.1544 99.9577 63.6154C99.604 64.0764 97.6774 65.0616 100.103 65.188C102.535 65.3143 107.437 62.9523 108.612 62.5481C109.787 62.1439 109.679 63.5396 109.073 64.3985C108.46 65.2637 108.397 67.8026 107.374 69.2298C106.287 70.7456 105.7 71.396 103.369 72.2928C101.202 73.1328 96.7109 73.3412 94.3989 74.6801C92.087 76.0126 86.4902 81.0713 82.757 83.667C77.7477 87.1531 74.9304 87.3805 72.9659 84.6017C71.0076 81.8229 69.7253 77.9894 68.9736 76.2779L68.9673 76.2842Z" fill="#FFA8A7"/>
<path d="M60.9386 49.709C64.217 49.4564 68.0893 49.6585 70.237 51.6163C71.9425 53.1762 72.5869 54.1741 74.4945 59.5296C75.7832 63.1483 78.4615 71.4847 78.4615 71.4847C78.4615 71.4847 72.7764 72.4952 68.9547 77.2949L62.7958 63.4578L60.9323 49.709H60.9386Z" fill="#FCFCFC"/>
<path d="M79.428 74.7625C77.2866 75.5267 75.859 77.0297 75.341 77.8949C75.341 77.8949 75.5684 75.3561 79.1122 73.8594L79.4217 74.7562L79.428 74.7625Z" fill="#F28F8F"/>
<path d="M53.0741 49.1151C53.0741 49.1151 50.9643 48.9572 48.4565 49.6203C45.5697 50.3845 40.3962 51.837 40.3962 51.837C38.7539 52.6896 38.1095 55.5379 37.7432 57.1673C36.5556 62.3965 39.6635 74.2443 40.1183 78.823C40.5668 83.408 39.5877 97.5293 39.5877 97.5293C43.1188 101.615 62.2525 104.331 71.5699 97.5293C71.5699 97.5293 71.9741 65.15 71.0582 60.5018C69.6685 53.4727 67.6092 50.1319 60.3385 49.7087L53.0868 49.1151H53.0741Z" fill="#FCFCFC"/>
<path d="M57.1611 31.7414L55.0829 32.8908C54.7734 32.2908 54.9944 31.5519 55.5693 31.2361C56.1441 30.9204 56.8579 31.1477 57.1611 31.7414Z" fill="#20495D"/>
<path d="M66.1942 32.5747L64.2992 31.1158C64.6845 30.5727 65.4236 30.459 65.9479 30.8632C66.4722 31.2674 66.5795 32.0316 66.1942 32.5747Z" fill="#20495D"/>
<path d="M47.6101 25.1289C47.6101 25.1289 45.3739 25.4384 44.5527 27.1246C43.8389 28.5898 44.0979 32.1264 45.0454 35.9789C45.9929 39.8313 46.8899 42.1554 47.4521 43.2227C48.008 44.29 49.1577 44.5868 49.1577 44.5868L49.044 40.0144L48.8797 36.8251C48.8797 36.8251 50.9264 34.0337 51.1475 31.7412C51.4381 28.7982 50.819 27.5919 50.819 27.5919L47.6037 25.1289H47.6101Z" fill="#20495D"/>
<path d="M51.217 29.556C51.2296 34.2737 55.0703 38.0819 59.7826 38.0692C64.5013 38.0566 68.0324 34.1852 68.0198 29.4676C68.0072 24.75 64.4445 20.9733 59.7258 20.9923C55.0071 21.0049 51.198 24.8447 51.2107 29.556H51.217Z" fill="#20495D"/>
<path d="M48.9998 36.3204C48.2291 36.9899 47.6037 35.2595 46.9594 34.59C46.3151 33.9206 44.2053 33.0048 43.163 35.2152C42.1018 37.4699 44.0853 40.6465 45.7024 41.2718C47.4585 41.9475 48.4565 40.4255 48.4565 40.4255V50.5618C50.8885 54.9384 55.1776 54.8058 57.4643 54.5595C59.7574 54.3132 60.2564 51.9323 58.5824 50.0124L58.5635 46.8799C58.5635 46.8799 61.1534 47.2651 62.4104 47.063C64.5076 46.7346 65.6067 45.1495 66.2384 42.8759C67.2491 39.2256 67.6534 33.0806 66.2511 25.9884C63.9012 24.1695 55.7462 24.4727 50.8127 27.5988C51.1728 33.889 49.7641 35.6573 48.9934 36.3268L48.9998 36.3204Z" fill="#FFA8A7"/>
<path d="M66.6427 22.4072C66.9586 21.0936 67.1038 19.7358 67.0659 18.3842C67.0533 17.8474 66.9333 17.2033 66.4406 17.0075C65.9605 16.818 65.4488 17.1717 65.0193 17.4622C63.2 18.6874 60.9386 19.0347 58.7467 19.1547C54.9692 19.3631 49.164 19.1168 47.2311 23.2661C46.6941 24.4155 46.6057 25.6281 47.6606 26.4238C48.5639 27.0996 49.7136 27.409 50.8127 27.5985C52.7267 27.9332 54.6281 28.35 56.5547 28.609C58.5193 28.8679 60.806 29.1268 62.7389 28.5269C64.3623 28.0279 66.0047 27.5985 67.2176 26.3101C68.2535 25.2049 68.8599 23.6955 68.8726 22.1798C68.8726 21.9651 68.822 21.6935 68.6136 21.643C68.5062 21.6178 68.3988 21.662 68.2977 21.7062C67.7418 21.9398 67.1923 22.1798 66.6364 22.4135L66.6427 22.4072Z" fill="#20495D"/>
<path d="M58.5698 46.873C58.5698 46.873 53.8764 45.9446 52.2403 45.0794C51.1412 44.4984 50.2379 43.4942 49.9662 42.8438C49.9662 42.8438 50.2758 44.2332 51.2612 45.4836C52.4614 47.012 58.5761 48.1172 58.5761 48.1172V46.873H58.5698Z" fill="#F28F8F"/>
<path d="M57.6223 34.8484C57.6223 35.4547 57.1548 35.941 56.5737 35.941C55.9925 35.941 55.5188 35.4547 55.5188 34.8484C55.5188 34.2421 55.9862 33.7559 56.5674 33.7559C57.1485 33.7559 57.6223 34.2421 57.6223 34.8484Z" fill="#20495D"/>
<path d="M59.1383 42.1427C59.1383 42.7111 58.6961 43.1721 58.1529 43.1721C57.6033 43.1721 57.1611 42.7111 57.1611 42.1427C57.1611 41.5743 57.6033 41.1133 58.1466 41.1133C58.6898 41.1133 59.1383 41.5743 59.1383 42.1427Z" fill="#B16668"/>
<path d="M56.2957 31.5263L54.1227 32.8968C53.7564 32.2716 53.9395 31.4569 54.5396 31.0779C55.1397 30.699 55.9294 30.9011 56.2957 31.5263Z" fill="#20495D"/>
<path d="M63.9707 30.1875L66.2574 31.2106C65.9984 31.8548 65.272 32.1516 64.6403 31.8737C64.0086 31.5895 63.7054 30.838 63.9707 30.1938V30.1875Z" fill="#20495D"/>
<path d="M65.1772 34.5322C65.1772 35.1132 64.7224 35.5869 64.1665 35.5869C63.6043 35.5869 63.1495 35.1132 63.1495 34.5322C63.1495 33.9512 63.6043 33.4775 64.1602 33.4775C64.7224 33.4775 65.1772 33.9512 65.1835 34.5322H65.1772Z" fill="#20495D"/>
<path d="M60.01 32.7451L60.3827 39.7679L63.7117 38.8837L60.01 32.7451Z" fill="#F28F8F"/>
<path d="M1.0107 61.6704C2.10352 62.2577 6.55689 65.3902 8.97624 65.6618C9.99957 65.7755 10.2775 65.6113 10.2396 65.346C10.1828 64.9797 9.53844 64.4303 9.38052 64.1334C9.1089 63.6219 7.47915 61.4746 8.11084 60.3568C8.74252 59.239 9.29208 60.3126 10.7955 61.7841C12.3052 63.2556 13.8402 63.7608 15.1604 65.4786C16.4807 67.1964 16.9228 69.9058 19.1021 71.8636L27.8131 77.8001C27.8131 77.8001 31.8685 58.9863 33.6498 56.7696C35.5196 54.4392 43.681 59.5168 41.9754 66.9249C40.2699 74.3329 36.3977 87.1785 33.7067 89.7047C31.9696 91.3404 28.2932 89.7931 23.7134 85.7197C20.0939 82.5051 15.1352 77.6548 13.0696 75.956C11.0039 74.2634 6.60743 73.3224 4.60499 72.1414C2.45094 70.872 1.9835 70.1394 1.15599 68.4658C0.379018 66.8933 0.726444 64.3734 0.265315 63.4198C-0.195815 62.4662 -0.0694782 61.0768 1.02334 61.6641L1.0107 61.6704Z" fill="#FFA8A7"/>
<path d="M40.3962 51.8311C43.182 53.5804 43.3272 56.1192 43.4662 59.018C43.5926 61.6895 43.0556 65.3777 41.8744 69.0217C40.6931 72.6784 38.8107 79.3538 38.8107 79.3538C38.8107 79.3538 31.5211 79.5243 27.7689 76.2845C27.7689 76.2845 29.4807 69.0912 30.6872 63.6788C31.8938 58.2665 33.3656 52.4437 40.3899 51.8311H40.3962Z" fill="#FCFCFC"/>
<path d="M27.8068 77.8002C29.7903 78.9055 30.9589 81.2801 31.3252 82.2211C31.3252 82.2211 31.2621 78.8865 28.0089 76.834L27.8068 77.8002Z" fill="#F28F8F"/>
<path d="M103.432 214.302L152.185 242.443V252.807L103.432 224.672V214.302Z" fill="#1CE4BF"/>
<path opacity="0.35" d="M103.432 214.302L152.185 242.443V252.807L103.432 224.672V214.302Z" fill="#131313"/>
<path d="M200.933 214.302L152.185 242.443V252.807L200.933 224.672V214.302Z" fill="#1CE4BF"/>
<path opacity="0.2" d="M200.933 214.302L152.185 242.443V252.807L200.933 224.672V214.302Z" fill="#131313"/>
<path d="M200.932 214.302L152.185 186.16L103.432 214.302L152.185 242.444L200.932 214.302Z" fill="#1CE4BF"/>
<path opacity="0.15" d="M200.932 214.302L152.185 186.16L103.432 214.302L152.185 242.444L200.932 214.302Z" fill="#131313"/>
<path opacity="0.1" d="M152.185 242.443V239.481L108.561 214.302H103.432L152.185 242.443Z" fill="#131313"/>
<path opacity="0.1" d="M152.185 186.16V189.122L195.803 214.302H200.933L152.185 186.16Z" fill="#131313"/>
<path d="M200.933 214.302H195.803L152.185 239.481V242.443L200.933 214.302Z" fill="#1CE4BF"/>
<path d="M152.185 186.16V189.122L108.561 214.302H103.432L152.185 186.16Z" fill="#1CE4BF"/>
<path d="M152.356 202.107L173.303 214.201C174.869 215.104 174.869 216.576 173.303 217.479L157.681 226.497C156.114 227.4 153.575 227.4 152.002 226.497L131.056 214.403C129.489 213.5 129.489 212.029 131.056 211.125L146.677 202.107C148.244 201.204 150.789 201.204 152.356 202.107Z" fill="#37474F"/>
<path d="M157.681 226.497L172.791 217.775L152.356 205.978C150.789 205.075 148.244 205.075 146.677 205.978L131.567 214.7L152.002 226.497C153.569 227.4 156.108 227.4 157.681 226.497Z" fill="#20495D"/>
<path d="M139.71 214.32L148.875 209.028C149.179 208.851 149.665 208.851 149.968 209.028L151.099 209.672C151.402 209.843 151.402 210.127 151.099 210.304L141.933 215.596C141.63 215.773 141.144 215.773 140.84 215.596L139.71 214.946C139.406 214.775 139.406 214.491 139.71 214.314V214.32Z" fill="#20495D"/>
<path d="M153.398 222.234L162.564 216.941C162.867 216.764 163.354 216.764 163.657 216.941L164.788 217.585C165.091 217.762 165.091 218.04 164.788 218.217L155.622 223.509C155.319 223.686 154.832 223.686 154.529 223.509L153.398 222.859C153.095 222.682 153.095 222.404 153.398 222.227V222.234Z" fill="#20495D"/>
<path d="M130.999 234.783C130.999 233.021 129.761 230.88 128.238 230.002C127.474 229.56 126.785 229.522 126.286 229.813C126.185 229.869 125.194 230.469 125.092 230.526C124.593 230.817 124.284 231.429 124.284 232.307C124.284 234.069 125.522 236.21 127.044 237.088C127.809 237.53 128.497 237.568 128.996 237.277C129.097 237.221 130.083 236.627 130.184 236.564C130.683 236.273 130.992 235.661 130.992 234.777L130.999 234.783Z" fill="#1CE4BF"/>
<path opacity="0.1" d="M127.044 230.709C128.567 231.587 129.805 233.728 129.805 235.49C129.805 237.252 128.567 237.966 127.044 237.082C125.522 236.204 124.284 234.057 124.284 232.301C124.284 230.545 125.522 229.825 127.044 230.709Z" fill="#131313"/>
<path d="M94.9927 250.888C91.809 250.888 88.6316 250.174 86.1491 248.74L53.8069 230.072C51.2043 228.569 49.7767 226.497 49.7767 224.243C49.7767 221.988 51.2107 219.91 53.8069 218.414L91.2784 196.783C95.3843 194.415 98.8523 188.409 98.8523 183.666V65.1059C98.8523 64.4112 99.4208 63.8428 100.116 63.8428C100.811 63.8428 101.379 64.4112 101.379 65.1059V183.666C101.379 189.388 97.4942 196.107 92.5418 198.968L55.0702 220.599C53.2826 221.628 52.3035 222.923 52.3035 224.243C52.3035 225.563 53.2889 226.857 55.0702 227.887L87.4125 246.555C91.5879 248.968 98.3848 248.968 102.56 246.555L126.406 232.8C127.013 232.453 127.783 232.661 128.131 233.261C128.478 233.867 128.27 234.638 127.67 234.985L103.824 248.74C101.347 250.168 98.1701 250.881 94.9864 250.881L94.9927 250.888Z" fill="#37474F"/>
<path d="M38.2422 19.761C38.2106 19.5842 38.2422 19.4137 38.3496 19.2621C38.457 19.1042 38.5959 19.0095 38.7728 18.9779L41.8491 18.3843C42.026 18.3527 42.1965 18.3843 42.3481 18.4916C42.5061 18.599 42.6008 18.7379 42.6324 18.9211L43.1062 21.3841C43.1377 21.5609 43.1062 21.7315 42.9988 21.883C42.8977 22.0409 42.7524 22.1356 42.5755 22.1672L39.4992 22.7609C39.3224 22.7925 39.1518 22.7609 39.0002 22.6535C38.8423 22.5461 38.7475 22.4072 38.716 22.2304L38.2422 19.7673V19.761ZM35.6775 6.46069C35.646 6.28385 35.6775 6.11334 35.7849 5.96176C35.8923 5.80388 36.0313 5.70915 36.2082 5.67757L39.2845 5.08392C39.4613 5.05234 39.6319 5.08392 39.7835 5.19128C39.9414 5.29864 40.0362 5.43758 40.0678 5.61442L42.0955 16.1296C42.127 16.3065 42.0955 16.477 41.9881 16.6286C41.8807 16.7865 41.7417 16.8812 41.5648 16.9128L38.4885 17.5064C38.3117 17.538 38.1411 17.5064 37.9895 17.3991C37.8316 17.2917 37.7368 17.1528 37.7053 16.9759L35.6775 6.46069Z" fill="#1CE4BF"/>
<path d="M33.1129 30.0678C32.9929 29.9351 32.936 29.7709 32.9423 29.5815C32.955 29.392 33.0245 29.2404 33.1634 29.1204L35.4944 27.03C35.6333 26.91 35.7912 26.8532 35.9807 26.8658C36.1703 26.8785 36.3219 26.9479 36.4419 27.0869L38.1158 28.9562C38.2359 29.0952 38.2927 29.2531 38.2801 29.4425C38.2674 29.632 38.198 29.7836 38.059 29.9036L35.7281 31.994C35.5954 32.114 35.4312 32.1708 35.2417 32.1582C35.0522 32.1519 34.9006 32.0761 34.7806 31.9371L33.1066 30.0678H33.1129ZM24.0735 19.982C23.9535 19.8494 23.8966 19.6852 23.9093 19.4957C23.9219 19.3062 23.9914 19.1547 24.1304 19.0347L26.4613 16.9442C26.6002 16.8243 26.7582 16.7674 26.9477 16.78C27.1372 16.7864 27.2888 16.8621 27.4088 17.0011L34.5531 24.9775C34.6732 25.1101 34.73 25.2743 34.7174 25.4638C34.7047 25.6533 34.6353 25.8048 34.4963 25.9248L32.1654 28.0152C32.0327 28.1352 31.8685 28.1921 31.679 28.1794C31.4895 28.1668 31.3379 28.0973 31.2178 27.9584L24.0735 19.982Z" fill="#1CE4BF"/>
<g opacity="0.6">
<path d="M33.1129 30.0678C32.9929 29.9351 32.936 29.7709 32.9423 29.5815C32.955 29.392 33.0245 29.2404 33.1634 29.1204L35.4944 27.03C35.6333 26.91 35.7912 26.8532 35.9807 26.8658C36.1703 26.8785 36.3219 26.9479 36.4419 27.0869L38.1158 28.9562C38.2359 29.0952 38.2927 29.2531 38.2801 29.4425C38.2674 29.632 38.198 29.7836 38.059 29.9036L35.7281 31.994C35.5954 32.114 35.4312 32.1708 35.2417 32.1582C35.0522 32.1519 34.9006 32.0761 34.7806 31.9371L33.1066 30.0678H33.1129ZM24.0735 19.982C23.9535 19.8494 23.8966 19.6852 23.9093 19.4957C23.9219 19.3062 23.9914 19.1547 24.1304 19.0347L26.4613 16.9442C26.6002 16.8243 26.7582 16.7674 26.9477 16.78C27.1372 16.7864 27.2888 16.8621 27.4088 17.0011L34.5531 24.9775C34.6732 25.1101 34.73 25.2743 34.7174 25.4638C34.7047 25.6533 34.6353 25.8048 34.4963 25.9248L32.1654 28.0152C32.0327 28.1352 31.8685 28.1921 31.679 28.1794C31.4895 28.1668 31.3379 28.0973 31.2178 27.9584L24.0735 19.982Z" fill="#FCFCFC"/>
</g>
</svg>
