<svg width="149" height="129" viewBox="0 0 149 129" fill="none" xmlns="http://www.w3.org/2000/svg">
<path d="M16 110C25.1668 108.435 26.4346 107.167 28 98C29.5654 107.167 30.8332 108.435 40 110C30.8332 111.565 29.5654 112.833 28 122C26.4346 112.833 25.1668 111.565 16 110Z" fill="#18CCAC" fill-opacity="0.6"/>
<path d="M-33.9959 80.2274C-33.4371 80.0756 -32.8853 79.7679 -32.391 79.4713C-13.8558 68.4477 10.8348 70.5823 29.6277 81.7076C48.4206 92.8329 61.7 111.786 69.5062 132.153C77.1299 152.018 79.9788 173.308 81.7416 194.452C81.7859 195.001 82.4858 195.196 82.8058 194.748C87.3993 188.213 89.187 179.983 89.7177 171.93C91.3459 147.162 82.3976 122.902 74.0149 99.4243C73.7792 98.7646 73.7624 98.0256 74.0696 97.4045C74.8658 95.7594 76.8492 96.2643 78.2912 96.927C89.2307 101.952 98.4881 110.648 104.187 121.264C104.549 121.936 105.057 122.719 105.887 122.517C106.578 122.349 106.965 121.601 106.822 120.896C104.639 110.335 99.8552 100.107 92.2555 92.3812C73.5616 73.3778 42.0178 72.5733 22.9514 53.9425C22.2945 53.2971 21.6023 52.5475 22.1882 51.3569C22.5352 50.6494 23.2185 50.1637 23.9849 49.9788C25.1949 49.6874 26.4166 49.4191 27.6443 49.1798C28.5031 49.007 29.3678 48.8516 30.2383 48.7021C31.1088 48.5525 31.9736 48.4202 32.8443 48.2937C33.7149 48.1673 34.5915 48.0581 35.4623 47.9548C36.3331 47.8514 37.2098 47.7653 38.0866 47.6908C38.9634 47.6163 39.8403 47.5534 40.723 47.4963C41.6057 47.4391 42.4828 47.3993 43.3599 47.371C44.2371 47.3427 45.12 47.3202 46.0031 47.3208C46.8863 47.3214 47.7694 47.322 48.6468 47.3398C49.5243 47.3577 50.4134 47.3872 51.291 47.4281C52.1687 47.4691 53.0522 47.5274 53.93 47.5915C54.8078 47.6555 55.6857 47.7311 56.5695 47.8241C57.4533 47.917 58.3255 48.0099 59.1979 48.1258C60.0703 48.2418 60.9485 48.3636 61.8153 48.4968C62.6878 48.6358 63.5547 48.7806 64.4274 48.9427C64.8609 49.0209 65.3002 49.1049 65.7279 49.1888C66.1556 49.2726 66.572 49.3911 66.9938 49.4461C67.5715 49.5195 67.919 48.8813 67.8576 48.3729C67.8149 48.0436 67.6173 47.8575 67.3448 47.6997C66.8928 47.4425 66.4407 47.1852 65.9829 46.9337C65.0673 46.4308 64.1518 45.9393 63.2249 45.4709L63.1844 45.4533C62.4312 45.0669 61.6725 44.6978 60.9137 44.3402C60.155 43.9827 59.3848 43.625 58.6147 43.2905C57.8446 42.9559 57.063 42.6213 56.2873 42.304C55.5115 41.9867 54.7185 41.6751 53.9314 41.3808C53.1443 41.0866 52.3515 40.798 51.553 40.5267C50.7602 40.2498 49.956 39.9842 49.1519 39.7302C48.3477 39.4762 47.5437 39.2338 46.7282 39.0028C45.9127 38.7718 45.1088 38.5525 44.2876 38.3388C43.4664 38.1251 42.6512 37.9287 41.836 37.7439C41.0208 37.5591 40.1884 37.3799 39.3675 37.2124C38.5467 37.0449 37.7144 36.8888 36.888 36.7501C36.0616 36.6114 35.2295 36.4784 34.3975 36.357C33.5654 36.2355 32.7335 36.1256 31.8959 36.033C31.0583 35.9404 30.2265 35.8536 29.389 35.7725C28.5514 35.6914 27.7141 35.6335 26.8768 35.587C26.0395 35.5406 25.2023 35.4941 24.3594 35.465C23.5164 35.4358 22.6794 35.424 21.8424 35.4122C21.0054 35.4004 20.1628 35.4174 19.3259 35.4287C18.4891 35.44 17.6467 35.4801 16.8158 35.5203C15.9849 35.5605 15.1426 35.6121 14.3061 35.6811C13.4697 35.7501 12.6391 35.825 11.8028 35.917C11.7221 35.928 11.6471 35.9332 11.5663 35.9442C-8.49258 38.1661 -27.6126 47.3328 -41.8074 61.5276C-42.4034 62.1236 -43.0163 62.783 -43.1488 63.6132C-43.2814 64.4319 -42.9176 65.2541 -42.5658 66.0185L-36.8261 78.36C-36.4978 79.0665 -36.1171 79.8254 -35.4106 80.1537C-34.9415 80.3707 -34.451 80.3569 -33.9614 80.2161L-33.9959 80.2274Z" fill="white" fill-opacity="0.3"/>
</svg>
