<svg width="161" height="139" viewBox="0 0 161 139" fill="none" xmlns="http://www.w3.org/2000/svg">
<path d="M3 43.5C16.3682 41.2171 18.2171 39.3682 20.5 26C22.7829 39.3682 24.6318 41.2171 38 43.5C24.6318 45.7829 22.7829 47.6318 20.5 61C18.2171 47.6318 16.3682 45.7829 3 43.5Z" fill="#18CCAC" fill-opacity="0.6"/>
<path d="M55 80.5C64.5487 78.8693 65.8693 77.5487 67.5 68C69.1307 77.5487 70.4513 78.8693 80 80.5C70.4513 82.1307 69.1307 83.4513 67.5 93C65.8693 83.4513 64.5487 82.1307 55 80.5Z" fill="#18CCAC" fill-opacity="0.6"/>
<path d="M186.027 54.565C185.483 54.7623 184.958 55.1143 184.49 55.4506C166.925 67.962 142.142 67.8663 122.497 58.3252C102.853 48.784 88.0589 30.9883 78.6031 11.3318C69.3708 -7.83784 64.7796 -28.8215 61.2829 -49.7486C61.1935 -50.2918 60.48 -50.429 60.198 -49.9563C56.1577 -43.0651 55.0533 -34.7164 55.1871 -26.6462C55.6025 -1.82886 66.5168 21.6132 76.8029 44.3211C77.0921 44.9591 77.1697 45.6942 76.9146 46.3385C76.2565 48.0435 74.2382 47.7035 72.7466 47.1618C61.4307 43.0536 51.4891 35.149 44.9365 25.0386C44.5197 24.3985 43.9492 23.6601 43.1389 23.9295C42.4637 24.154 42.1394 24.9309 42.3406 25.6219C45.3851 35.9676 50.9941 45.7671 59.2037 52.8412C79.3979 70.2419 110.901 68.448 131.436 85.4468C132.144 86.036 132.895 86.726 132.409 87.9608C132.122 88.6944 131.48 89.2347 130.732 89.4821C129.55 89.8721 128.355 90.2399 127.151 90.5795C126.309 90.8223 125.46 91.0483 124.605 91.269C123.75 91.4897 122.899 91.6927 122.041 91.8904C121.184 92.0881 120.319 92.269 119.46 92.4437C118.601 92.6184 117.734 92.7763 116.866 92.9226C115.999 93.069 115.13 93.2039 114.255 93.3335C113.38 93.463 112.509 93.5749 111.637 93.6753C110.765 93.7757 109.887 93.8708 109.007 93.9429C108.127 94.0149 107.247 94.087 106.371 94.1414C105.495 94.1958 104.606 94.2396 103.728 94.271C102.85 94.3024 101.965 94.317 101.085 94.3254C100.205 94.3338 99.3236 94.3307 98.4352 94.3108C97.5468 94.2909 96.6698 94.2701 95.7909 94.2263C94.9119 94.1825 94.0266 94.1334 93.1518 94.072C92.2708 94.0052 91.395 93.9323 90.5118 93.8425C90.0734 93.8003 89.6287 93.7527 89.1955 93.7043C88.7624 93.6559 88.3376 93.5721 87.9127 93.552C87.3309 93.5264 87.0371 94.191 87.1401 94.6926C87.2099 95.0173 87.4221 95.1865 87.7066 95.3214C88.1783 95.5405 88.65 95.7597 89.1269 95.9727C90.0808 96.3986 91.0337 96.813 91.9959 97.2036L92.0378 97.2178C92.8202 97.5409 93.6068 97.8463 94.3923 98.1403C95.1779 98.4342 95.9749 98.7272 96.7699 98.9973C97.5649 99.2673 98.3715 99.5365 99.1707 99.7889C99.9699 100.041 100.786 100.287 101.594 100.515C102.403 100.744 103.217 100.966 104.035 101.171C104.848 101.381 105.671 101.58 106.494 101.767C107.316 101.954 108.137 102.129 108.969 102.292C109.801 102.455 110.62 102.608 111.456 102.753C112.292 102.899 113.121 103.027 113.948 103.144C114.776 103.261 115.62 103.372 116.452 103.471C117.284 103.57 118.126 103.657 118.961 103.728C119.796 103.798 120.636 103.862 121.476 103.915C122.315 103.967 123.153 104.008 123.995 104.032C124.838 104.055 125.674 104.073 126.515 104.085C127.357 104.097 128.196 104.086 129.034 104.063C129.872 104.04 130.711 104.018 131.553 103.977C132.396 103.937 133.231 103.88 134.066 103.823C134.901 103.766 135.739 103.68 136.572 103.599C137.405 103.519 138.242 103.41 139.066 103.302C139.891 103.193 140.726 103.072 141.554 102.935C142.382 102.797 143.204 102.654 144.03 102.494C144.109 102.476 144.184 102.465 144.263 102.447C164.071 98.5822 182.372 87.8733 195.351 72.5586C195.896 71.9155 196.452 71.208 196.516 70.3697C196.581 69.5429 196.151 68.7534 195.737 68.0205L189.001 56.1932C188.616 55.516 188.174 54.7911 187.443 54.522C186.958 54.3444 186.47 54.3985 185.994 54.5791L186.027 54.565Z" fill="white" fill-opacity="0.3"/>
</svg>
