<svg width="118" height="153" viewBox="0 0 118 153" fill="none" xmlns="http://www.w3.org/2000/svg">
<g clip-path="url(#clip0_391_9067)">
<path d="M10.7131 142.836L9.41942 152.311H0.650879L9.42342 104.241H20.7794L29.6198 152.311H20.7115L19.4178 142.836H10.7131ZM14.7261 113.378L11.8711 134.667H18.3317L15.4089 113.378H14.7301H14.7261Z" fill="#FCFCFC"/>
<path d="M56.7558 139.816C56.7558 144.485 55.7815 147.852 53.833 149.912C51.8844 151.972 48.71 153.001 44.3137 153.001C39.9175 153.001 36.7431 151.968 34.7905 149.912C32.842 147.852 31.8677 144.485 31.8677 139.816V104.245H40.7081V139.747C40.7081 143.045 41.91 144.691 44.3137 144.691C46.7175 144.691 47.9194 143.041 47.9194 139.747V104.245H56.7598V139.816H56.7558Z" fill="#FCFCFC"/>
<path d="M79.8792 130.268C80.8774 130.865 81.7239 131.712 82.4307 132.808C83.1334 133.905 83.6445 135.212 83.96 136.724L86.747 152.311H77.703L75.5268 138.578C75.2992 137.203 74.848 136.207 74.1652 135.591C73.4864 134.974 72.4403 134.663 71.0387 134.663H70.4957V152.311H61.6553V104.173H73.6941C81.4005 104.173 85.2537 108.455 85.2537 117.015V119.212C85.2537 124.797 83.4608 128.438 79.8831 130.131V130.268H79.8792ZM70.4957 126.974H71.8573C73.3986 126.974 74.5326 126.426 75.2593 125.325C75.986 124.224 76.3494 122.486 76.3494 120.108V118.733C76.3494 116.354 75.986 114.612 75.2593 113.515C74.5326 112.414 73.3986 111.866 71.8573 111.866H70.4957V126.974Z" fill="#FCFCFC"/>
<path d="M98.4427 142.836L97.149 152.311H88.3765L97.149 104.241H108.505L117.345 152.311H108.437L107.147 142.836H98.4427ZM102.456 113.378L99.6007 134.667H106.061L103.138 113.378H102.46H102.456Z" fill="#FCFCFC"/>
<path d="M71.3422 80.2179C71.5897 80.0768 71.8892 79.9921 72.1647 79.9236C82.4626 77.3189 90.3207 68.0169 92.992 57.6425C95.6633 47.268 93.6868 36.0912 89.3105 26.3216C85.042 16.7858 78.6173 8.41525 71.8652 0.472121C71.6895 0.266486 71.8652 -0.0439811 72.1328 0.000371442C76.0099 0.673723 79.4998 2.90748 82.4905 5.51621C91.6863 13.54 97.0209 25.0555 102.28 36.1033C102.427 36.4138 102.679 36.6759 103.002 36.7847C103.853 37.0791 104.368 36.2162 104.639 35.4864C106.7 29.9504 106.895 23.7249 105.183 18.068C105.075 17.7091 104.979 17.2616 105.338 17.0438C105.638 16.8624 106.033 16.9874 106.229 17.2817C109.148 21.7008 111.044 26.9062 111.088 32.2204C111.196 45.2923 100.487 56.5095 100.335 69.5814C100.331 70.033 100.351 70.5329 100.97 70.7426C101.337 70.8676 101.745 70.799 102.076 70.5975C102.599 70.2789 103.118 69.9483 103.629 69.6056C103.989 69.3677 104.344 69.1217 104.699 68.8717C105.055 68.6217 105.402 68.3677 105.75 68.1097C106.097 67.8516 106.44 67.5855 106.78 67.3194C107.119 67.0533 107.454 66.7791 107.786 66.5009C108.117 66.2227 108.445 65.9404 108.772 65.6542C109.1 65.3679 109.419 65.0776 109.734 64.7832C110.05 64.4889 110.365 64.1905 110.673 63.8841C110.98 63.5777 111.288 63.2712 111.587 62.9608C111.887 62.6503 112.186 62.3318 112.478 62.0132C112.769 61.6947 113.057 61.3681 113.34 61.0415C113.624 60.7149 113.903 60.3843 114.179 60.0456C114.454 59.7069 114.726 59.3722 114.989 59.0295C115.257 58.6868 115.516 58.34 115.772 57.9933C116.027 57.6465 116.279 57.2917 116.527 56.9328C116.65 56.7554 116.774 56.574 116.894 56.3966C117.014 56.2192 117.117 56.0337 117.245 55.8684C117.421 55.6426 117.764 55.7434 117.92 55.941C118.02 56.07 118.016 56.203 117.976 56.3522C117.908 56.5982 117.84 56.8441 117.768 57.0901C117.625 57.582 117.477 58.0699 117.317 58.5537L117.309 58.5739C117.181 58.969 117.046 59.3601 116.906 59.7472C116.766 60.1343 116.622 60.5254 116.471 60.9084C116.319 61.2915 116.163 61.6786 116.003 62.0576C115.844 62.4366 115.676 62.8196 115.504 63.1946C115.333 63.5696 115.157 63.9446 114.973 64.3155C114.79 64.6865 114.606 65.0574 114.414 65.4243C114.223 65.7913 114.027 66.1541 113.823 66.517C113.62 66.8799 113.416 67.2347 113.204 67.5936C112.993 67.9524 112.777 68.3032 112.558 68.65C112.338 68.9967 112.11 69.3475 111.883 69.6902C111.655 70.033 111.42 70.3757 111.18 70.7103C110.94 71.049 110.697 71.3797 110.449 71.7103C110.202 72.0409 109.95 72.3675 109.691 72.6901C109.435 73.0126 109.171 73.3312 108.908 73.6497C108.644 73.9682 108.373 74.2787 108.097 74.5851C107.822 74.8916 107.546 75.198 107.263 75.5004C106.979 75.8028 106.692 76.0972 106.404 76.3915C106.117 76.6858 105.817 76.9721 105.522 77.2584C105.226 77.5447 104.919 77.8229 104.616 78.0971C104.312 78.3712 104.001 78.6454 103.685 78.9115C103.37 79.1776 103.054 79.4397 102.731 79.6978C102.699 79.722 102.671 79.7462 102.639 79.7704C94.8767 85.9555 85.022 89.4069 75.1315 89.4069C74.7162 89.4069 74.273 89.3908 73.9376 89.1489C73.6062 88.911 73.4464 88.4997 73.3027 88.1127L71.0028 81.8428C70.871 81.484 70.7392 81.0888 70.871 80.73C70.9588 80.4921 71.1345 80.3268 71.3541 80.2058L71.3422 80.2179Z" fill="#FCFCFC"/>
<path d="M46.6578 80.2178C46.4102 80.0767 46.1107 79.992 45.8352 79.9234C35.5374 77.3187 27.6792 68.0168 25.0079 57.6424C22.3366 47.2679 24.3132 36.0911 28.6894 26.3214C32.9539 16.7897 39.3786 8.41916 46.1307 0.476027C46.3064 0.270393 46.1307 -0.0400748 45.8632 0.00427769C41.986 0.677629 38.4962 2.91138 35.5054 5.52012C26.3096 13.5439 20.975 25.0594 15.7163 36.1072C15.5686 36.4177 15.317 36.6798 14.9936 36.7886C14.1431 37.083 13.628 36.2201 13.3565 35.4903C11.2961 29.9543 11.1004 23.7288 12.8134 18.0719C12.9212 17.713 13.0171 17.2655 12.6577 17.0477C12.3582 16.8663 11.9629 16.9913 11.7673 17.2856C8.84841 21.7047 6.95176 26.9101 6.90783 32.2243C6.80002 45.2962 17.5091 56.5134 17.6609 69.5853C17.6649 70.0369 17.6449 70.5368 17.026 70.7465C16.6586 70.8715 16.2514 70.803 15.9199 70.6014C15.3969 70.2828 14.8778 69.9522 14.3667 69.6095C14.0073 69.3716 13.6519 69.1256 13.2966 68.8756C12.9412 68.6257 12.5938 68.3716 12.2464 68.1136C11.899 67.8555 11.5556 67.5894 11.2162 67.3233C10.8768 67.0572 10.5414 66.783 10.21 66.5048C9.8786 66.2266 9.55118 65.9443 9.22375 65.6581C8.89633 65.3718 8.57689 65.0815 8.26145 64.7871C7.946 64.4928 7.63056 64.1944 7.3231 63.888C7.01564 63.5816 6.70819 63.2751 6.40871 62.9647C6.10924 62.6542 5.80977 62.3357 5.51828 62.0171C5.2268 61.6986 4.9393 61.372 4.6558 61.0454C4.3723 60.7188 4.0928 60.3882 3.81728 60.0495C3.54177 59.7108 3.27025 59.3761 3.00671 59.0334C2.74318 58.6907 2.47964 58.3439 2.22409 57.9972C1.96854 57.6464 1.71698 57.2956 1.46942 56.9368C1.34564 56.7593 1.22186 56.5779 1.10207 56.4005C0.982279 56.2231 0.878462 56.0376 0.750687 55.8723C0.574997 55.6465 0.231602 55.7473 0.0758766 55.9449C-0.0239474 56.0739 -0.0199545 56.207 0.0199752 56.3561C0.0878555 56.6021 0.155736 56.8481 0.227609 57.094C0.371356 57.5859 0.519095 58.0738 0.678814 58.5576L0.6868 58.5778C0.814575 58.9729 0.950335 59.3641 1.09009 59.7511C1.22984 60.1382 1.37359 60.5293 1.52532 60.9124C1.67705 61.2954 1.83278 61.6825 1.9925 62.0615C2.15222 62.4405 2.31992 62.8235 2.49162 63.1985C2.66332 63.5735 2.83901 63.9485 3.02268 64.3194C3.20237 64.6904 3.39004 65.0613 3.5817 65.4282C3.77336 65.7952 3.96901 66.158 4.17266 66.5209C4.3763 66.8838 4.57994 67.2386 4.79156 67.5975C5.00319 67.9563 5.21881 68.3071 5.43842 68.6539C5.65804 69.0006 5.88564 69.3514 6.11324 69.6942C6.34083 70.0369 6.57642 70.3796 6.816 70.7143C7.05557 71.0489 7.29914 71.3836 7.54671 71.7142C7.79427 72.0448 8.04583 72.3714 8.30537 72.694C8.56491 73.0165 8.82446 73.3351 9.08799 73.6536C9.35153 73.9721 9.62305 74.2826 9.89856 74.5891C10.1741 74.8955 10.4496 75.2019 10.7331 75.5043C11.0166 75.8067 11.3041 76.1011 11.5916 76.3954C11.8791 76.6898 12.1785 76.976 12.474 77.2623C12.7695 77.5486 13.077 77.8268 13.3804 78.101C13.6839 78.3751 13.9953 78.6493 14.3108 78.9154C14.6262 79.1815 14.9417 79.4436 15.2651 79.7017C15.297 79.7259 15.325 79.7501 15.3569 79.7743C23.1193 85.9594 32.9739 89.4109 42.8645 89.4109C43.2797 89.4109 43.7229 89.3947 44.0583 89.1528C44.3898 88.9149 44.5495 88.5036 44.6932 88.1166L46.9932 81.8467C47.1249 81.4879 47.2567 81.0927 47.1249 80.7339C47.0371 80.496 46.8614 80.3307 46.6418 80.2097L46.6578 80.2178Z" fill="#FCFCFC"/>
<path d="M31.6362 44.7117C52.5394 41.107 55.4303 38.1878 59 17.0801C62.5697 38.1878 65.4606 41.107 86.3638 44.7117C65.4606 48.3163 62.5697 51.2355 59 72.3433C55.4303 51.2355 52.5394 48.3163 31.6362 44.7117Z" fill="#18CCAC"/>
</g>
<defs>
<clipPath id="clip0_391_9067">
<rect width="118" height="153" fill="white"/>
</clipPath>
</defs>
</svg>
